<?xml version="1.0" encoding="UTF-8"?>
<!-- Ocean2joy Logo - Horizontal Version -->
<!-- For designer: Colors are #38bdf8 (sky blue) to #2dd4bf (teal) gradient -->
<!-- Recommended fonts: Montserrat Bold or Poppins SemiBold -->
<svg viewBox="0 0 300 60" xmlns="http://www.w3.org/2000/svg">
  <defs>
    <linearGradient id="oceanGradient" x1="0%" y1="0%" x2="100%" y2="0%">
      <stop offset="0%" style="stop-color:#38bdf8;stop-opacity:1" />
      <stop offset="100%" style="stop-color:#2dd4bf;stop-opacity:1" />
    </linearGradient>
  </defs>
  
  <!-- Wave + Film Strip Icon -->
  <g transform="translate(0, 10)">
    <!-- Film strip perforations (left) -->
    <rect x="2" y="8" width="3" height="3" fill="url(#oceanGradient)" rx="0.5" />
    <rect x="2" y="14" width="3" height="3" fill="url(#oceanGradient)" rx="0.5" />
    <rect x="2" y="20" width="3" height="3" fill="url(#oceanGradient)" rx="0.5" />
    <rect x="2" y="26" width="3" height="3" fill="url(#oceanGradient)" rx="0.5" />
    <rect x="2" y="32" width="3" height="3" fill="url(#oceanGradient)" rx="0.5" />
    
    <!-- Wave path -->
    <path
      d="M 8 20 Q 12 12, 16 20 T 24 20 Q 28 28, 32 20 Q 36 12, 40 20"
      fill="none"
      stroke="url(#oceanGradient)"
      stroke-width="3.5"
      stroke-linecap="round"
    />
    
    <!-- Film strip perforations (right) -->
    <rect x="43" y="8" width="3" height="3" fill="url(#oceanGradient)" rx="0.5" />
    <rect x="43" y="14" width="3" height="3" fill="url(#oceanGradient)" rx="0.5" />
    <rect x="43" y="20" width="3" height="3" fill="url(#oceanGradient)" rx="0.5" />
    <rect x="43" y="26" width="3" height="3" fill="url(#oceanGradient)" rx="0.5" />
    <rect x="43" y="32" width="3" height="3" fill="url(#oceanGradient)" rx="0.5" />
    
    <!-- Film strip frames -->
    <rect x="6" y="7" width="40" height="8" fill="none" stroke="url(#oceanGradient)" stroke-width="1.5" opacity="0.3" rx="1" />
    <rect x="6" y="27" width="40" height="8" fill="none" stroke="url(#oceanGradient)" stroke-width="1.5" opacity="0.3" rx="1" />
  </g>
  
  <!-- Text Ocean2joy -->
  <text
    x="60"
    y="38"
    font-family="system-ui, -apple-system, sans-serif"
    font-size="24"
    font-weight="700"
    fill="url(#oceanGradient)"
    letter-spacing="-0.5"
  >
    Ocean2joy
  </text>
</svg>
