<?xml version="1.0" encoding="UTF-8"?>
<!-- Ocean2joy Logo - Vertical Version -->
<!-- For designer: Colors are #38bdf8 (sky blue) to #2dd4bf (teal) gradient -->
<!-- Recommended fonts: Montserrat Bold or Poppins SemiBold -->
<svg viewBox="0 0 140 160" xmlns="http://www.w3.org/2000/svg">
  <defs>
    <linearGradient id="oceanGradientV" x1="0%" y1="0%" x2="0%" y2="100%">
      <stop offset="0%" style="stop-color:#38bdf8;stop-opacity:1" />
      <stop offset="100%" style="stop-color:#2dd4bf;stop-opacity:1" />
    </linearGradient>
  </defs>
  
  <!-- Wave + Film Strip Icon (larger, centered) -->
  <g transform="translate(20, 10)">
    <!-- Film strip perforations (left) -->
    <rect x="4" y="16" width="6" height="6" fill="url(#oceanGradientV)" rx="1" />
    <rect x="4" y="28" width="6" height="6" fill="url(#oceanGradientV)" rx="1" />
    <rect x="4" y="40" width="6" height="6" fill="url(#oceanGradientV)" rx="1" />
    <rect x="4" y="52" width="6" height="6" fill="url(#oceanGradientV)" rx="1" />
    <rect x="4" y="64" width="6" height="6" fill="url(#oceanGradientV)" rx="1" />
    
    <!-- Wave path (larger) -->
    <path
      d="M 16 40 Q 24 24, 32 40 T 48 40 Q 56 56, 64 40 Q 72 24, 80 40"
      fill="none"
      stroke="url(#oceanGradientV)"
      stroke-width="7"
      stroke-linecap="round"
    />
    
    <!-- Film strip perforations (right) -->
    <rect x="86" y="16" width="6" height="6" fill="url(#oceanGradientV)" rx="1" />
    <rect x="86" y="28" width="6" height="6" fill="url(#oceanGradientV)" rx="1" />
    <rect x="86" y="40" width="6" height="6" fill="url(#oceanGradientV)" rx="1" />
    <rect x="86" y="52" width="6" height="6" fill="url(#oceanGradientV)" rx="1" />
    <rect x="86" y="64" width="6" height="6" fill="url(#oceanGradientV)" rx="1" />
    
    <!-- Film strip frames -->
    <rect x="12" y="14" width="80" height="16" fill="none" stroke="url(#oceanGradientV)" stroke-width="3" opacity="0.3" rx="2" />
    <rect x="12" y="54" width="80" height="16" fill="none" stroke="url(#oceanGradientV)" stroke-width="3" opacity="0.3" rx="2" />
  </g>
  
  <!-- Text Ocean2joy (centered below icon) -->
  <text
    x="70"
    y="120"
    font-family="system-ui, -apple-system, sans-serif"
    font-size="22"
    font-weight="700"
    fill="url(#oceanGradientV)"
    text-anchor="middle"
    letter-spacing="-0.5"
  >
    Ocean2joy
  </text>
</svg>
